<?xml version="1.0" encoding="UTF-8" standalone="no"?>
<svg
   xmlns:dc="http://purl.org/dc/elements/1.1/"
   xmlns:cc="http://creativecommons.org/ns#"
   xmlns:rdf="http://www.w3.org/1999/02/22-rdf-syntax-ns#"
   xmlns:svg="http://www.w3.org/2000/svg"
   xmlns="http://www.w3.org/2000/svg"
   xmlns:sodipodi="http://sodipodi.sourceforge.net/DTD/sodipodi-0.dtd"
   xmlns:inkscape="http://www.inkscape.org/namespaces/inkscape"
   version="1.1"
   id="svg2"
   xml:space="preserve"
   width="226.772"
   height="95.073997"
   viewBox="0 0 226.772 95.073997"
   sodipodi:docname="FLEXXO.ai"><metadata
     id="metadata8"><rdf:RDF><cc:Work
         rdf:about=""><dc:format>image/svg+xml</dc:format><dc:type
           rdf:resource="http://purl.org/dc/dcmitype/StillImage" /></cc:Work></rdf:RDF></metadata><defs
     id="defs6"><clipPath
       clipPathUnits="userSpaceOnUse"
       id="clipPath18"><path
         d="M 0,71.306 H 170.079 V 0 H 0 Z"
         id="path16" /></clipPath></defs><sodipodi:namedview
     pagecolor="#ffffff"
     bordercolor="#666666"
     borderopacity="1"
     objecttolerance="10"
     gridtolerance="10"
     guidetolerance="10"
     inkscape:pageopacity="0"
     inkscape:pageshadow="2"
     inkscape:window-width="640"
     inkscape:window-height="480"
     id="namedview4" /><g
     id="g10"
     inkscape:groupmode="layer"
     inkscape:label="FLEXXO"
     transform="matrix(1.3333333,0,0,-1.3333333,0,95.074)"><g
       id="g12"><g
         id="g14"
         clip-path="url(#clipPath18)"><g
           id="g20"
           transform="translate(33.2956,47.0419)"><path
             d="m 0,0 v -7.048 h -5.602 v -23.857 h -7.952 V -7.048 H -17.29 V 0 h 3.736 c 0.12,8.072 5,14.037 13.855,13.013 V 5.543 C -3.494,5.843 -5.602,4.276 -5.602,0 Z"
             style="fill:#707271;fill-opacity:1;fill-rule:nonzero;stroke:none"
             id="path22" /></g><g
           id="g24"
           transform="translate(146.0597,31.56)"><path
             d="m 0,0 c 0,5.361 -3.431,9.097 -7.649,9.097 -4.215,0 -7.65,-3.736 -7.65,-9.097 0,-5.242 3.435,-8.855 7.65,-8.855 C -3.431,-8.855 0,-5.242 0,0 m 8.014,0.06 c 0,-9.278 -7.047,-16.204 -15.663,-16.204 -8.616,0 -15.603,6.926 -15.603,16.204 0,9.277 6.987,16.326 15.603,16.326 8.616,0 15.663,-7.049 15.663,-16.326"
             style="fill:#707271;fill-opacity:1;fill-rule:nonzero;stroke:none"
             id="path26" /></g><g
           id="g28"
           transform="translate(114.048,31.6166)"><path
             d="M 0,0 10.967,15.516 H 1.99 l -6.477,-9.165 -6.479,9.165 h -8.975 L 5.501,-20.48 h 8.975 z"
             style="fill:#707271;fill-opacity:1;fill-rule:nonzero;stroke:none"
             id="path30" /></g><g
           id="g32"
           transform="translate(109.2492,16.1367)"><path
             d="m 0,0 -25.442,35.996 h -8.976 L -20.031,15.642 -31.089,-10e-4 h 8.976 L -15.544,9.292 -8.976,0 Z"
             style="fill:#707271;fill-opacity:1;fill-rule:nonzero;stroke:none"
             id="path34" /></g><path
           d="m 37.213,15.982 h 7.952 v 44.033 h -7.952 z"
           style="fill:#707271;fill-opacity:1;fill-rule:nonzero;stroke:none"
           id="path36" /><g
           id="g38"
           transform="translate(60.9113,40.0449)"><path
             d="m 0,0 c 1.917,0.894 3.985,1.061 5.903,0.63 l -9.772,-13.957 c -0.216,0.339 -0.42,0.689 -0.595,1.063 C -6.615,-7.652 -4.612,-2.149 0,0 m 23.639,-7.758 -4.277,6.051 -8.504,-12.703 -0.003,0.012 c -0.823,-0.954 -1.84,-1.765 -3.054,-2.33 -1.917,-0.894 -3.985,-1.061 -5.905,-0.63 L 15.891,2.628 C 15.125,3.465 14.272,4.2 13.363,4.844 l 0.006,0.008 C 13.333,4.877 13.295,4.9 13.26,4.925 13.206,4.962 13.15,4.997 13.096,5.034 8.506,8.176 2.433,8.898 -2.973,6.377 c -8.141,-3.796 -11.664,-13.473 -7.868,-21.615 0.98,-2.099 2.355,-3.886 3.989,-5.324 0.07,-0.061 0.143,-0.114 0.213,-0.174 0.378,-0.322 0.768,-0.626 1.172,-0.91 0.061,-0.043 0.123,-0.082 0.184,-0.123 0.435,-0.298 0.882,-0.573 1.342,-0.825 0.027,-0.016 0.056,-0.031 0.084,-0.046 4.377,-2.373 9.774,-2.731 14.63,-0.464 3.074,1.432 5.474,3.708 7.082,6.415 z"
             style="fill:#b2c235;fill-opacity:1;fill-rule:nonzero;stroke:none"
             id="path40" /></g></g></g></g></svg>
